<mxfile host="app.diagrams.net" modified="2024-02-20T15:16:27.924Z" agent="Mozilla/5.0 (Windows NT 10.0; Win64; x64; rv:122.0) Gecko/20100101 Firefox/122.0" etag="rXKcam7ZkME7HE-F9coB" version="23.1.5" type="github">
  <diagram id="C5RBs43oDa-KdzZeNtuy" name="Page-1">
    <mxGraphModel dx="1195" dy="660" grid="1" gridSize="10" guides="1" tooltips="1" connect="1" arrows="1" fold="1" page="1" pageScale="1" pageWidth="1600" pageHeight="900" math="0" shadow="0">
      <root>
        <mxCell id="WIyWlLk6GJQsqaUBKTNV-0" />
        <mxCell id="WIyWlLk6GJQsqaUBKTNV-1" parent="WIyWlLk6GJQsqaUBKTNV-0" />
        <mxCell id="DiUZtxXK9iD7o8kNdBPh-24" value="" style="edgeStyle=orthogonalEdgeStyle;rounded=0;orthogonalLoop=1;jettySize=auto;html=1;entryX=-0.133;entryY=0.522;entryDx=0;entryDy=0;entryPerimeter=0;" edge="1" parent="WIyWlLk6GJQsqaUBKTNV-1" source="DiUZtxXK9iD7o8kNdBPh-20" target="DiUZtxXK9iD7o8kNdBPh-36">
          <mxGeometry relative="1" as="geometry">
            <mxPoint x="320" y="180" as="targetPoint" />
          </mxGeometry>
        </mxCell>
        <mxCell id="DiUZtxXK9iD7o8kNdBPh-20" value="Start" style="strokeWidth=2;html=1;shape=mxgraph.flowchart.start_1;whiteSpace=wrap;" vertex="1" parent="WIyWlLk6GJQsqaUBKTNV-1">
          <mxGeometry x="360" y="166.25" width="60" height="30" as="geometry" />
        </mxCell>
        <mxCell id="DiUZtxXK9iD7o8kNdBPh-27" value="" style="edgeStyle=orthogonalEdgeStyle;rounded=0;orthogonalLoop=1;jettySize=auto;html=1;" edge="1" parent="WIyWlLk6GJQsqaUBKTNV-1" source="DiUZtxXK9iD7o8kNdBPh-36" target="DiUZtxXK9iD7o8kNdBPh-25">
          <mxGeometry relative="1" as="geometry" />
        </mxCell>
        <mxCell id="DiUZtxXK9iD7o8kNdBPh-31" style="edgeStyle=orthogonalEdgeStyle;rounded=0;orthogonalLoop=1;jettySize=auto;html=1;entryX=0.5;entryY=1;entryDx=0;entryDy=0;" edge="1" parent="WIyWlLk6GJQsqaUBKTNV-1" source="DiUZtxXK9iD7o8kNdBPh-25" target="DiUZtxXK9iD7o8kNdBPh-30">
          <mxGeometry relative="1" as="geometry" />
        </mxCell>
        <mxCell id="DiUZtxXK9iD7o8kNdBPh-39" value="Yes" style="edgeLabel;html=1;align=center;verticalAlign=middle;resizable=0;points=[];" vertex="1" connectable="0" parent="DiUZtxXK9iD7o8kNdBPh-31">
          <mxGeometry x="-0.3657" relative="1" as="geometry">
            <mxPoint as="offset" />
          </mxGeometry>
        </mxCell>
        <mxCell id="DiUZtxXK9iD7o8kNdBPh-41" value="" style="edgeStyle=orthogonalEdgeStyle;rounded=0;orthogonalLoop=1;jettySize=auto;html=1;" edge="1" parent="WIyWlLk6GJQsqaUBKTNV-1" source="DiUZtxXK9iD7o8kNdBPh-25" target="DiUZtxXK9iD7o8kNdBPh-40">
          <mxGeometry relative="1" as="geometry" />
        </mxCell>
        <mxCell id="DiUZtxXK9iD7o8kNdBPh-53" value="No" style="edgeLabel;html=1;align=center;verticalAlign=middle;resizable=0;points=[];" vertex="1" connectable="0" parent="DiUZtxXK9iD7o8kNdBPh-41">
          <mxGeometry x="-0.5465" y="1" relative="1" as="geometry">
            <mxPoint as="offset" />
          </mxGeometry>
        </mxCell>
        <mxCell id="DiUZtxXK9iD7o8kNdBPh-25" value="&lt;div&gt;Update&lt;/div&gt;&lt;div&gt;Schedule&lt;br&gt;Feed?&lt;br&gt;&lt;/div&gt;" style="strokeWidth=2;html=1;shape=mxgraph.flowchart.decision;whiteSpace=wrap;" vertex="1" parent="WIyWlLk6GJQsqaUBKTNV-1">
          <mxGeometry x="550" y="140" width="90" height="80" as="geometry" />
        </mxCell>
        <mxCell id="DiUZtxXK9iD7o8kNdBPh-35" style="edgeStyle=orthogonalEdgeStyle;rounded=0;orthogonalLoop=1;jettySize=auto;html=1;entryX=0.5;entryY=0;entryDx=0;entryDy=0;entryPerimeter=0;" edge="1" parent="WIyWlLk6GJQsqaUBKTNV-1" source="DiUZtxXK9iD7o8kNdBPh-30" target="DiUZtxXK9iD7o8kNdBPh-36">
          <mxGeometry relative="1" as="geometry">
            <mxPoint x="490" y="180" as="targetPoint" />
          </mxGeometry>
        </mxCell>
        <mxCell id="DiUZtxXK9iD7o8kNdBPh-30" value="Update Schedule" style="rounded=1;whiteSpace=wrap;html=1;absoluteArcSize=1;arcSize=14;strokeWidth=2;" vertex="1" parent="WIyWlLk6GJQsqaUBKTNV-1">
          <mxGeometry x="557.5" y="60" width="75" height="30" as="geometry" />
        </mxCell>
        <mxCell id="DiUZtxXK9iD7o8kNdBPh-36" value="" style="strokeWidth=2;html=1;shape=mxgraph.flowchart.decision;whiteSpace=wrap;" vertex="1" parent="WIyWlLk6GJQsqaUBKTNV-1">
          <mxGeometry x="470" y="166.25" width="30" height="27.5" as="geometry" />
        </mxCell>
        <mxCell id="DiUZtxXK9iD7o8kNdBPh-52" value="" style="edgeStyle=orthogonalEdgeStyle;rounded=0;orthogonalLoop=1;jettySize=auto;html=1;" edge="1" parent="WIyWlLk6GJQsqaUBKTNV-1" source="DiUZtxXK9iD7o8kNdBPh-40" target="DiUZtxXK9iD7o8kNdBPh-51">
          <mxGeometry relative="1" as="geometry" />
        </mxCell>
        <mxCell id="DiUZtxXK9iD7o8kNdBPh-54" value="&lt;div&gt;No&lt;/div&gt;" style="edgeLabel;html=1;align=center;verticalAlign=middle;resizable=0;points=[];" vertex="1" connectable="0" parent="DiUZtxXK9iD7o8kNdBPh-52">
          <mxGeometry x="-0.3845" y="-2" relative="1" as="geometry">
            <mxPoint y="-2" as="offset" />
          </mxGeometry>
        </mxCell>
        <mxCell id="DiUZtxXK9iD7o8kNdBPh-63" style="edgeStyle=orthogonalEdgeStyle;rounded=0;orthogonalLoop=1;jettySize=auto;html=1;entryX=0.5;entryY=0;entryDx=0;entryDy=0;" edge="1" parent="WIyWlLk6GJQsqaUBKTNV-1" source="DiUZtxXK9iD7o8kNdBPh-40" target="DiUZtxXK9iD7o8kNdBPh-58">
          <mxGeometry relative="1" as="geometry" />
        </mxCell>
        <mxCell id="DiUZtxXK9iD7o8kNdBPh-70" value="Yes" style="edgeLabel;html=1;align=center;verticalAlign=middle;resizable=0;points=[];" vertex="1" connectable="0" parent="DiUZtxXK9iD7o8kNdBPh-63">
          <mxGeometry x="-0.69" relative="1" as="geometry">
            <mxPoint as="offset" />
          </mxGeometry>
        </mxCell>
        <mxCell id="DiUZtxXK9iD7o8kNdBPh-40" value="&lt;div&gt;Feed&lt;/div&gt;&lt;div&gt;Trigger&lt;/div&gt;&lt;div&gt;?&lt;br&gt;&lt;/div&gt;" style="rhombus;whiteSpace=wrap;html=1;strokeWidth=2;" vertex="1" parent="WIyWlLk6GJQsqaUBKTNV-1">
          <mxGeometry x="725" y="140" width="80" height="80" as="geometry" />
        </mxCell>
        <mxCell id="DiUZtxXK9iD7o8kNdBPh-45" value="" style="edgeStyle=orthogonalEdgeStyle;rounded=0;orthogonalLoop=1;jettySize=auto;html=1;entryX=0.5;entryY=0;entryDx=0;entryDy=0;entryPerimeter=0;" edge="1" parent="WIyWlLk6GJQsqaUBKTNV-1" source="DiUZtxXK9iD7o8kNdBPh-42" target="DiUZtxXK9iD7o8kNdBPh-46">
          <mxGeometry relative="1" as="geometry">
            <mxPoint x="765" y="405" as="targetPoint" />
          </mxGeometry>
        </mxCell>
        <mxCell id="DiUZtxXK9iD7o8kNdBPh-42" value="&lt;div&gt;Relay ON&lt;/div&gt;&lt;div&gt;Start Motor&lt;br&gt;&lt;/div&gt;" style="whiteSpace=wrap;html=1;strokeWidth=2;" vertex="1" parent="WIyWlLk6GJQsqaUBKTNV-1">
          <mxGeometry x="830" y="390" width="115" height="30" as="geometry" />
        </mxCell>
        <mxCell id="DiUZtxXK9iD7o8kNdBPh-49" value="" style="edgeStyle=orthogonalEdgeStyle;rounded=0;orthogonalLoop=1;jettySize=auto;html=1;" edge="1" parent="WIyWlLk6GJQsqaUBKTNV-1" source="DiUZtxXK9iD7o8kNdBPh-46" target="DiUZtxXK9iD7o8kNdBPh-48">
          <mxGeometry relative="1" as="geometry" />
        </mxCell>
        <mxCell id="DiUZtxXK9iD7o8kNdBPh-46" value="Delay" style="strokeWidth=2;html=1;shape=mxgraph.flowchart.delay;whiteSpace=wrap;" vertex="1" parent="WIyWlLk6GJQsqaUBKTNV-1">
          <mxGeometry x="846.25" y="450" width="82.5" height="30" as="geometry" />
        </mxCell>
        <mxCell id="DiUZtxXK9iD7o8kNdBPh-67" value="" style="edgeStyle=orthogonalEdgeStyle;rounded=0;orthogonalLoop=1;jettySize=auto;html=1;" edge="1" parent="WIyWlLk6GJQsqaUBKTNV-1" source="DiUZtxXK9iD7o8kNdBPh-48" target="DiUZtxXK9iD7o8kNdBPh-66">
          <mxGeometry relative="1" as="geometry" />
        </mxCell>
        <mxCell id="DiUZtxXK9iD7o8kNdBPh-48" value="&lt;div&gt;Relay OFF&lt;/div&gt;&lt;div&gt;Stop Motor&lt;br&gt;&lt;/div&gt;" style="whiteSpace=wrap;html=1;strokeWidth=2;" vertex="1" parent="WIyWlLk6GJQsqaUBKTNV-1">
          <mxGeometry x="840" y="510" width="95" height="35" as="geometry" />
        </mxCell>
        <mxCell id="DiUZtxXK9iD7o8kNdBPh-59" value="" style="edgeStyle=orthogonalEdgeStyle;rounded=0;orthogonalLoop=1;jettySize=auto;html=1;" edge="1" parent="WIyWlLk6GJQsqaUBKTNV-1" source="DiUZtxXK9iD7o8kNdBPh-51" target="DiUZtxXK9iD7o8kNdBPh-58">
          <mxGeometry relative="1" as="geometry" />
        </mxCell>
        <mxCell id="DiUZtxXK9iD7o8kNdBPh-83" value="Yes" style="edgeLabel;html=1;align=center;verticalAlign=middle;resizable=0;points=[];" vertex="1" connectable="0" parent="DiUZtxXK9iD7o8kNdBPh-59">
          <mxGeometry x="-0.4549" y="1" relative="1" as="geometry">
            <mxPoint as="offset" />
          </mxGeometry>
        </mxCell>
        <mxCell id="DiUZtxXK9iD7o8kNdBPh-81" style="edgeStyle=orthogonalEdgeStyle;rounded=0;orthogonalLoop=1;jettySize=auto;html=1;entryX=0.5;entryY=0;entryDx=0;entryDy=0;" edge="1" parent="WIyWlLk6GJQsqaUBKTNV-1" source="DiUZtxXK9iD7o8kNdBPh-51" target="DiUZtxXK9iD7o8kNdBPh-66">
          <mxGeometry relative="1" as="geometry" />
        </mxCell>
        <mxCell id="DiUZtxXK9iD7o8kNdBPh-84" value="No" style="edgeLabel;html=1;align=center;verticalAlign=middle;resizable=0;points=[];" vertex="1" connectable="0" parent="DiUZtxXK9iD7o8kNdBPh-81">
          <mxGeometry x="-0.7806" y="1" relative="1" as="geometry">
            <mxPoint as="offset" />
          </mxGeometry>
        </mxCell>
        <mxCell id="DiUZtxXK9iD7o8kNdBPh-51" value="&lt;div&gt;Timer&lt;/div&gt;&lt;div&gt;Schedule?&lt;/div&gt;" style="rhombus;whiteSpace=wrap;html=1;strokeWidth=2;" vertex="1" parent="WIyWlLk6GJQsqaUBKTNV-1">
          <mxGeometry x="725" y="270" width="80" height="70" as="geometry" />
        </mxCell>
        <mxCell id="DiUZtxXK9iD7o8kNdBPh-65" style="edgeStyle=orthogonalEdgeStyle;rounded=0;orthogonalLoop=1;jettySize=auto;html=1;entryX=0.5;entryY=0;entryDx=0;entryDy=0;" edge="1" parent="WIyWlLk6GJQsqaUBKTNV-1" source="DiUZtxXK9iD7o8kNdBPh-58" target="DiUZtxXK9iD7o8kNdBPh-42">
          <mxGeometry relative="1" as="geometry">
            <mxPoint x="887" y="370" as="targetPoint" />
          </mxGeometry>
        </mxCell>
        <mxCell id="DiUZtxXK9iD7o8kNdBPh-58" value="" style="rhombus;whiteSpace=wrap;html=1;strokeWidth=2;" vertex="1" parent="WIyWlLk6GJQsqaUBKTNV-1">
          <mxGeometry x="870" y="287.5" width="35" height="35" as="geometry" />
        </mxCell>
        <mxCell id="DiUZtxXK9iD7o8kNdBPh-69" value="" style="edgeStyle=orthogonalEdgeStyle;rounded=0;orthogonalLoop=1;jettySize=auto;html=1;" edge="1" parent="WIyWlLk6GJQsqaUBKTNV-1" source="DiUZtxXK9iD7o8kNdBPh-66" target="DiUZtxXK9iD7o8kNdBPh-68">
          <mxGeometry relative="1" as="geometry" />
        </mxCell>
        <mxCell id="DiUZtxXK9iD7o8kNdBPh-66" value="" style="rhombus;whiteSpace=wrap;html=1;strokeWidth=2;" vertex="1" parent="WIyWlLk6GJQsqaUBKTNV-1">
          <mxGeometry x="743.75" y="506.25" width="42.5" height="42.5" as="geometry" />
        </mxCell>
        <mxCell id="DiUZtxXK9iD7o8kNdBPh-75" value="" style="edgeStyle=orthogonalEdgeStyle;rounded=0;orthogonalLoop=1;jettySize=auto;html=1;" edge="1" parent="WIyWlLk6GJQsqaUBKTNV-1" source="DiUZtxXK9iD7o8kNdBPh-68" target="DiUZtxXK9iD7o8kNdBPh-73">
          <mxGeometry relative="1" as="geometry">
            <Array as="points">
              <mxPoint x="661" y="450" />
              <mxPoint x="661" y="450" />
            </Array>
          </mxGeometry>
        </mxCell>
        <mxCell id="DiUZtxXK9iD7o8kNdBPh-68" value="Read Sensor" style="whiteSpace=wrap;html=1;strokeWidth=2;" vertex="1" parent="WIyWlLk6GJQsqaUBKTNV-1">
          <mxGeometry x="620" y="511.25" width="82.5" height="32.5" as="geometry" />
        </mxCell>
        <mxCell id="DiUZtxXK9iD7o8kNdBPh-71" value="Cloud" style="strokeWidth=2;html=1;shape=mxgraph.flowchart.database;whiteSpace=wrap;" vertex="1" parent="WIyWlLk6GJQsqaUBKTNV-1">
          <mxGeometry x="510" y="497.5" width="60" height="60" as="geometry" />
        </mxCell>
        <mxCell id="DiUZtxXK9iD7o8kNdBPh-72" style="edgeStyle=orthogonalEdgeStyle;rounded=0;orthogonalLoop=1;jettySize=auto;html=1;entryX=1;entryY=0.5;entryDx=0;entryDy=0;entryPerimeter=0;" edge="1" parent="WIyWlLk6GJQsqaUBKTNV-1" source="DiUZtxXK9iD7o8kNdBPh-68" target="DiUZtxXK9iD7o8kNdBPh-71">
          <mxGeometry relative="1" as="geometry" />
        </mxCell>
        <mxCell id="DiUZtxXK9iD7o8kNdBPh-73" value="LCD" style="strokeWidth=2;html=1;shape=mxgraph.flowchart.display;whiteSpace=wrap;" vertex="1" parent="WIyWlLk6GJQsqaUBKTNV-1">
          <mxGeometry x="621.25" y="420" width="80" height="40" as="geometry" />
        </mxCell>
        <mxCell id="DiUZtxXK9iD7o8kNdBPh-79" value="" style="edgeStyle=orthogonalEdgeStyle;rounded=0;orthogonalLoop=1;jettySize=auto;html=1;entryX=0.5;entryY=1;entryDx=0;entryDy=0;entryPerimeter=0;" edge="1" parent="WIyWlLk6GJQsqaUBKTNV-1" source="DiUZtxXK9iD7o8kNdBPh-76" target="DiUZtxXK9iD7o8kNdBPh-77">
          <mxGeometry relative="1" as="geometry">
            <mxPoint x="390" y="460" as="targetPoint" />
            <Array as="points" />
          </mxGeometry>
        </mxCell>
        <mxCell id="DiUZtxXK9iD7o8kNdBPh-76" value="Web Client" style="strokeWidth=2;html=1;shape=mxgraph.flowchart.display;whiteSpace=wrap;" vertex="1" parent="WIyWlLk6GJQsqaUBKTNV-1">
          <mxGeometry x="350" y="507.5" width="80" height="40" as="geometry" />
        </mxCell>
        <mxCell id="DiUZtxXK9iD7o8kNdBPh-77" value="Finish" style="strokeWidth=2;html=1;shape=mxgraph.flowchart.start_1;whiteSpace=wrap;" vertex="1" parent="WIyWlLk6GJQsqaUBKTNV-1">
          <mxGeometry x="360" y="410" width="60" height="30" as="geometry" />
        </mxCell>
        <mxCell id="DiUZtxXK9iD7o8kNdBPh-78" style="edgeStyle=orthogonalEdgeStyle;rounded=0;orthogonalLoop=1;jettySize=auto;html=1;entryX=1;entryY=0.5;entryDx=0;entryDy=0;entryPerimeter=0;" edge="1" parent="WIyWlLk6GJQsqaUBKTNV-1" source="DiUZtxXK9iD7o8kNdBPh-71" target="DiUZtxXK9iD7o8kNdBPh-76">
          <mxGeometry relative="1" as="geometry" />
        </mxCell>
      </root>
    </mxGraphModel>
  </diagram>
</mxfile>
